<mxfile host="app.diagrams.net" agent="Mozilla/5.0 (Windows NT 10.0; Win64; x64) AppleWebKit/537.36 (KHTML, like Gecko) Chrome/134.0.0.0 Safari/537.36" version="26.1.1">
  <diagram name="‫עמוד-1‬" id="DI3qZcFAIZ2z5hM6odv8">
    <mxGraphModel dx="2261" dy="738" grid="1" gridSize="10" guides="1" tooltips="1" connect="1" arrows="1" fold="1" page="1" pageScale="1" pageWidth="827" pageHeight="1169" math="0" shadow="0">
      <root>
        <mxCell id="0" />
        <mxCell id="1" parent="0" />
        <mxCell id="bXJEPuBD1ownikjbYshO-33" value="" style="rounded=0;whiteSpace=wrap;html=1;" vertex="1" parent="1">
          <mxGeometry x="1410" y="890" width="140" height="180" as="geometry" />
        </mxCell>
        <mxCell id="bXJEPuBD1ownikjbYshO-29" value="" style="rounded=0;whiteSpace=wrap;html=1;" vertex="1" parent="1">
          <mxGeometry x="1654" y="402.5" width="210" height="192.5" as="geometry" />
        </mxCell>
        <mxCell id="iwIkaGXNoYvXrUVN33Zz-12" value="" style="rounded=0;whiteSpace=wrap;html=1;fillColor=#d5e8d4;strokeColor=#82b366;" parent="1" vertex="1">
          <mxGeometry x="930" y="585" width="210" height="120" as="geometry" />
        </mxCell>
        <mxCell id="iwIkaGXNoYvXrUVN33Zz-1" value="Supervisor giving agent based on prompt" style="rounded=0;whiteSpace=wrap;html=1;fillColor=#d5e8d4;strokeColor=#82b366;" parent="1" vertex="1">
          <mxGeometry x="410" y="180" width="150" height="70" as="geometry" />
        </mxCell>
        <mxCell id="iwIkaGXNoYvXrUVN33Zz-2" value="Script maker" style="rounded=0;whiteSpace=wrap;html=1;fillColor=#fff2cc;strokeColor=#d6b656;" parent="1" vertex="1">
          <mxGeometry x="890" y="390" width="120" height="60" as="geometry" />
        </mxCell>
        <mxCell id="iwIkaGXNoYvXrUVN33Zz-3" value="Date Scheduler" style="rounded=0;whiteSpace=wrap;html=1;" parent="1" vertex="1">
          <mxGeometry x="-220" y="390" width="120" height="60" as="geometry" />
        </mxCell>
        <mxCell id="iwIkaGXNoYvXrUVN33Zz-4" value="Box maker" style="rounded=0;whiteSpace=wrap;html=1;" parent="1" vertex="1">
          <mxGeometry x="414" y="390" width="120" height="60" as="geometry" />
        </mxCell>
        <mxCell id="iwIkaGXNoYvXrUVN33Zz-5" value="LLM" style="rounded=0;whiteSpace=wrap;html=1;fillColor=#d5e8d4;strokeColor=#82b366;" parent="1" vertex="1">
          <mxGeometry x="760" y="641" width="120" height="60" as="geometry" />
        </mxCell>
        <mxCell id="iwIkaGXNoYvXrUVN33Zz-10" value="" style="edgeStyle=orthogonalEdgeStyle;rounded=0;orthogonalLoop=1;jettySize=auto;html=1;entryX=0.5;entryY=0;entryDx=0;entryDy=0;" parent="1" source="iwIkaGXNoYvXrUVN33Zz-9" target="iwIkaGXNoYvXrUVN33Zz-5" edge="1">
          <mxGeometry relative="1" as="geometry">
            <mxPoint x="820" y="630" as="targetPoint" />
          </mxGeometry>
        </mxCell>
        <mxCell id="iwIkaGXNoYvXrUVN33Zz-9" value="start" style="ellipse;whiteSpace=wrap;html=1;fillColor=#d5e8d4;strokeColor=#82b366;" parent="1" vertex="1">
          <mxGeometry x="760" y="500" width="120" height="80" as="geometry" />
        </mxCell>
        <mxCell id="iwIkaGXNoYvXrUVN33Zz-11" value="Sentiment Analysis" style="rounded=1;whiteSpace=wrap;html=1;fillColor=#d5e8d4;strokeColor=#82b366;" parent="1" vertex="1">
          <mxGeometry x="975" y="625" width="125" height="60" as="geometry" />
        </mxCell>
        <mxCell id="iwIkaGXNoYvXrUVN33Zz-13" value="Tools" style="text;html=1;align=center;verticalAlign=middle;whiteSpace=wrap;rounded=0;" parent="1" vertex="1">
          <mxGeometry x="1005" y="585" width="60" height="30" as="geometry" />
        </mxCell>
        <mxCell id="iwIkaGXNoYvXrUVN33Zz-16" style="edgeStyle=orthogonalEdgeStyle;rounded=0;orthogonalLoop=1;jettySize=auto;html=1;entryX=-0.01;entryY=0.72;entryDx=0;entryDy=0;entryPerimeter=0;" parent="1" source="iwIkaGXNoYvXrUVN33Zz-5" target="iwIkaGXNoYvXrUVN33Zz-12" edge="1">
          <mxGeometry relative="1" as="geometry" />
        </mxCell>
        <mxCell id="iwIkaGXNoYvXrUVN33Zz-17" value="End" style="ellipse;whiteSpace=wrap;html=1;" parent="1" vertex="1">
          <mxGeometry x="230" y="960" width="120" height="80" as="geometry" />
        </mxCell>
        <mxCell id="bXJEPuBD1ownikjbYshO-27" style="edgeStyle=orthogonalEdgeStyle;rounded=0;orthogonalLoop=1;jettySize=auto;html=1;entryX=0;entryY=0.75;entryDx=0;entryDy=0;" edge="1" parent="1" source="iwIkaGXNoYvXrUVN33Zz-21" target="iwIkaGXNoYvXrUVN33Zz-24">
          <mxGeometry relative="1" as="geometry" />
        </mxCell>
        <mxCell id="iwIkaGXNoYvXrUVN33Zz-21" value="LLM" style="rounded=0;whiteSpace=wrap;html=1;fillColor=#fff2cc;strokeColor=#d6b656;" parent="1" vertex="1">
          <mxGeometry x="320" y="610" width="120" height="60" as="geometry" />
        </mxCell>
        <mxCell id="iwIkaGXNoYvXrUVN33Zz-27" value="" style="edgeStyle=orthogonalEdgeStyle;rounded=0;orthogonalLoop=1;jettySize=auto;html=1;entryX=0.5;entryY=0;entryDx=0;entryDy=0;" parent="1" source="iwIkaGXNoYvXrUVN33Zz-23" target="iwIkaGXNoYvXrUVN33Zz-21" edge="1">
          <mxGeometry relative="1" as="geometry">
            <mxPoint x="380" y="600" as="targetPoint" />
          </mxGeometry>
        </mxCell>
        <mxCell id="iwIkaGXNoYvXrUVN33Zz-23" value="start" style="ellipse;whiteSpace=wrap;html=1;" parent="1" vertex="1">
          <mxGeometry x="320" y="480" width="120" height="80" as="geometry" />
        </mxCell>
        <mxCell id="iwIkaGXNoYvXrUVN33Zz-24" value="" style="rounded=0;whiteSpace=wrap;html=1;" parent="1" vertex="1">
          <mxGeometry x="490" y="497" width="210" height="190" as="geometry" />
        </mxCell>
        <mxCell id="iwIkaGXNoYvXrUVN33Zz-25" value="Tools" style="text;html=1;align=center;verticalAlign=middle;whiteSpace=wrap;rounded=0;" parent="1" vertex="1">
          <mxGeometry x="565" y="497" width="60" height="30" as="geometry" />
        </mxCell>
        <mxCell id="iwIkaGXNoYvXrUVN33Zz-30" value="Retrieve Games from Mongo" style="rounded=1;whiteSpace=wrap;html=1;" parent="1" vertex="1">
          <mxGeometry x="1674" y="445" width="170" height="60" as="geometry" />
        </mxCell>
        <mxCell id="iwIkaGXNoYvXrUVN33Zz-32" value="Retrieve user favorites games from Mongo" style="rounded=1;whiteSpace=wrap;html=1;" parent="1" vertex="1">
          <mxGeometry x="1674" y="512.5" width="170" height="60" as="geometry" />
        </mxCell>
        <mxCell id="iwIkaGXNoYvXrUVN33Zz-35" value="Card Maker" style="rounded=0;whiteSpace=wrap;html=1;" parent="1" vertex="1">
          <mxGeometry x="70" y="390" width="120" height="60" as="geometry" />
        </mxCell>
        <mxCell id="iwIkaGXNoYvXrUVN33Zz-47" value="LLM" style="rounded=0;whiteSpace=wrap;html=1;" parent="1" vertex="1">
          <mxGeometry x="70" y="595.5" width="120" height="60" as="geometry" />
        </mxCell>
        <mxCell id="iwIkaGXNoYvXrUVN33Zz-48" value="" style="edgeStyle=orthogonalEdgeStyle;rounded=0;orthogonalLoop=1;jettySize=auto;html=1;entryX=0.5;entryY=0;entryDx=0;entryDy=0;" parent="1" source="iwIkaGXNoYvXrUVN33Zz-49" target="iwIkaGXNoYvXrUVN33Zz-47" edge="1">
          <mxGeometry relative="1" as="geometry">
            <mxPoint x="130" y="583" as="targetPoint" />
          </mxGeometry>
        </mxCell>
        <mxCell id="iwIkaGXNoYvXrUVN33Zz-49" value="start" style="ellipse;whiteSpace=wrap;html=1;" parent="1" vertex="1">
          <mxGeometry x="70" y="473" width="120" height="80" as="geometry" />
        </mxCell>
        <mxCell id="iwIkaGXNoYvXrUVN33Zz-69" value="LLM" style="rounded=0;whiteSpace=wrap;html=1;" parent="1" vertex="1">
          <mxGeometry x="-350" y="610" width="120" height="60" as="geometry" />
        </mxCell>
        <mxCell id="iwIkaGXNoYvXrUVN33Zz-70" value="" style="edgeStyle=orthogonalEdgeStyle;rounded=0;orthogonalLoop=1;jettySize=auto;html=1;" parent="1" source="iwIkaGXNoYvXrUVN33Zz-71" edge="1">
          <mxGeometry relative="1" as="geometry">
            <mxPoint x="-290" y="610" as="targetPoint" />
          </mxGeometry>
        </mxCell>
        <mxCell id="iwIkaGXNoYvXrUVN33Zz-71" value="start" style="ellipse;whiteSpace=wrap;html=1;" parent="1" vertex="1">
          <mxGeometry x="-350" y="490" width="120" height="80" as="geometry" />
        </mxCell>
        <mxCell id="iwIkaGXNoYvXrUVN33Zz-72" value="" style="rounded=0;whiteSpace=wrap;html=1;" parent="1" vertex="1">
          <mxGeometry x="-180" y="565" width="210" height="135" as="geometry" />
        </mxCell>
        <mxCell id="iwIkaGXNoYvXrUVN33Zz-73" value="Tools" style="text;html=1;align=center;verticalAlign=middle;whiteSpace=wrap;rounded=0;" parent="1" vertex="1">
          <mxGeometry x="-105" y="565" width="60" height="30" as="geometry" />
        </mxCell>
        <mxCell id="iwIkaGXNoYvXrUVN33Zz-76" value="Calendar API" style="rounded=1;whiteSpace=wrap;html=1;" parent="1" vertex="1">
          <mxGeometry x="-160" y="605" width="170" height="60" as="geometry" />
        </mxCell>
        <mxCell id="iwIkaGXNoYvXrUVN33Zz-80" style="edgeStyle=orthogonalEdgeStyle;rounded=0;orthogonalLoop=1;jettySize=auto;html=1;entryX=-0.005;entryY=0.559;entryDx=0;entryDy=0;entryPerimeter=0;" parent="1" source="iwIkaGXNoYvXrUVN33Zz-69" target="iwIkaGXNoYvXrUVN33Zz-72" edge="1">
          <mxGeometry relative="1" as="geometry" />
        </mxCell>
        <mxCell id="bXJEPuBD1ownikjbYshO-12" value="" style="rounded=0;whiteSpace=wrap;html=1;" vertex="1" parent="1">
          <mxGeometry x="1390" y="578" width="210" height="100" as="geometry" />
        </mxCell>
        <mxCell id="bXJEPuBD1ownikjbYshO-13" value="Agentic RAG" style="rounded=0;whiteSpace=wrap;html=1;fillColor=#fff2cc;strokeColor=#d6b656;" vertex="1" parent="1">
          <mxGeometry x="1330" y="390" width="120" height="60" as="geometry" />
        </mxCell>
        <mxCell id="bXJEPuBD1ownikjbYshO-14" value="LLM" style="rounded=0;whiteSpace=wrap;html=1;" vertex="1" parent="1">
          <mxGeometry x="1200" y="620" width="120" height="60" as="geometry" />
        </mxCell>
        <mxCell id="bXJEPuBD1ownikjbYshO-17" value="" style="edgeStyle=orthogonalEdgeStyle;rounded=0;orthogonalLoop=1;jettySize=auto;html=1;entryX=0.5;entryY=0;entryDx=0;entryDy=0;" edge="1" parent="1" source="bXJEPuBD1ownikjbYshO-18" target="bXJEPuBD1ownikjbYshO-14">
          <mxGeometry relative="1" as="geometry">
            <mxPoint x="1260" y="630" as="targetPoint" />
          </mxGeometry>
        </mxCell>
        <mxCell id="bXJEPuBD1ownikjbYshO-18" value="start" style="ellipse;whiteSpace=wrap;html=1;" vertex="1" parent="1">
          <mxGeometry x="1200" y="500" width="120" height="80" as="geometry" />
        </mxCell>
        <mxCell id="bXJEPuBD1ownikjbYshO-19" value="Vector DB retriver" style="rounded=1;whiteSpace=wrap;html=1;" vertex="1" parent="1">
          <mxGeometry x="1420" y="608" width="120" height="60" as="geometry" />
        </mxCell>
        <mxCell id="bXJEPuBD1ownikjbYshO-20" value="Tools" style="text;html=1;align=center;verticalAlign=middle;whiteSpace=wrap;rounded=0;" vertex="1" parent="1">
          <mxGeometry x="1465" y="580" width="60" height="30" as="geometry" />
        </mxCell>
        <mxCell id="bXJEPuBD1ownikjbYshO-21" style="edgeStyle=orthogonalEdgeStyle;rounded=0;orthogonalLoop=1;jettySize=auto;html=1;entryX=-0.01;entryY=0.72;entryDx=0;entryDy=0;entryPerimeter=0;" edge="1" parent="1" source="bXJEPuBD1ownikjbYshO-14" target="bXJEPuBD1ownikjbYshO-12">
          <mxGeometry relative="1" as="geometry" />
        </mxCell>
        <mxCell id="bXJEPuBD1ownikjbYshO-28" value="Mongo MCP Server" style="rounded=0;whiteSpace=wrap;html=1;" vertex="1" parent="1">
          <mxGeometry x="530" y="535" width="120" height="60" as="geometry" />
        </mxCell>
        <mxCell id="bXJEPuBD1ownikjbYshO-30" value="Mongo MCP Server" style="text;html=1;align=center;verticalAlign=middle;whiteSpace=wrap;rounded=0;" vertex="1" parent="1">
          <mxGeometry x="1694" y="402.5" width="130" height="20" as="geometry" />
        </mxCell>
        <mxCell id="bXJEPuBD1ownikjbYshO-31" value="Cards" style="rounded=0;whiteSpace=wrap;html=1;" vertex="1" parent="1">
          <mxGeometry x="1420" y="920" width="120" height="60" as="geometry" />
        </mxCell>
        <mxCell id="bXJEPuBD1ownikjbYshO-32" value="Old scripts" style="rounded=0;whiteSpace=wrap;html=1;" vertex="1" parent="1">
          <mxGeometry x="1420" y="1000" width="120" height="60" as="geometry" />
        </mxCell>
        <mxCell id="bXJEPuBD1ownikjbYshO-34" value="Data" style="text;html=1;align=center;verticalAlign=middle;whiteSpace=wrap;rounded=0;" vertex="1" parent="1">
          <mxGeometry x="1450" y="890" width="60" height="30" as="geometry" />
        </mxCell>
        <mxCell id="bXJEPuBD1ownikjbYshO-36" value="Embedding" style="shape=cylinder3;whiteSpace=wrap;html=1;boundedLbl=1;backgroundOutline=1;size=15;" vertex="1" parent="1">
          <mxGeometry x="1440" y="730" width="80" height="90" as="geometry" />
        </mxCell>
      </root>
    </mxGraphModel>
  </diagram>
</mxfile>
